<svg width="630" height="78" viewBox="0 0 630 78" fill="none" xmlns="http://www.w3.org/2000/svg">
<path d="M10.336 15H8.512L3.024 6.696V15H1.2V3.864H3.024L8.512 12.152V3.864H10.336V15ZM12.1233 10.552C12.1233 9.66667 12.3046 8.88267 12.6673 8.2C13.0406 7.51733 13.5419 6.98933 14.1713 6.616C14.8113 6.232 15.5153 6.04 16.2833 6.04C16.9766 6.04 17.5793 6.17867 18.0913 6.456C18.6139 6.72267 19.0299 7.05867 19.3393 7.464V6.184H21.1793V15H19.3393V13.688C19.0299 14.104 18.6086 14.4507 18.0753 14.728C17.5419 15.0053 16.9339 15.144 16.2513 15.144C15.4939 15.144 14.8006 14.952 14.1713 14.568C13.5419 14.1733 13.0406 13.6293 12.6673 12.936C12.3046 12.232 12.1233 11.4373 12.1233 10.552ZM19.3393 10.584C19.3393 9.976 19.2113 9.448 18.9553 9C18.7099 8.552 18.3846 8.21067 17.9793 7.976C17.5739 7.74133 17.1366 7.624 16.6673 7.624C16.1979 7.624 15.7606 7.74133 15.3553 7.976C14.9499 8.2 14.6193 8.536 14.3633 8.984C14.1179 9.42133 13.9953 9.944 13.9953 10.552C13.9953 11.16 14.1179 11.6933 14.3633 12.152C14.6193 12.6107 14.9499 12.9627 15.3553 13.208C15.7713 13.4427 16.2086 13.56 16.6673 13.56C17.1366 13.56 17.5739 13.4427 17.9793 13.208C18.3846 12.9733 18.7099 12.632 18.9553 12.184C19.2113 11.7253 19.3393 11.192 19.3393 10.584ZM34.247 6.04C34.9403 6.04 35.559 6.184 36.103 6.472C36.6577 6.76 37.0897 7.18667 37.399 7.752C37.719 8.31733 37.879 9 37.879 9.8V15H36.071V10.072C36.071 9.28267 35.8737 8.68 35.479 8.264C35.0843 7.83733 34.5457 7.624 33.863 7.624C33.1803 7.624 32.6363 7.83733 32.231 8.264C31.8363 8.68 31.639 9.28267 31.639 10.072V15H29.831V10.072C29.831 9.28267 29.6337 8.68 29.239 8.264C28.8443 7.83733 28.3057 7.624 27.623 7.624C26.9403 7.624 26.3963 7.83733 25.991 8.264C25.5963 8.68 25.399 9.28267 25.399 10.072V15H23.575V6.184H25.399V7.192C25.6977 6.82933 26.0763 6.54667 26.535 6.344C26.9937 6.14133 27.4843 6.04 28.007 6.04C28.711 6.04 29.3403 6.18933 29.895 6.488C30.4497 6.78667 30.8763 7.21867 31.175 7.784C31.4417 7.25067 31.8577 6.82933 32.423 6.52C32.9883 6.2 33.5963 6.04 34.247 6.04ZM48.28 10.376C48.28 10.7067 48.2587 11.0053 48.216 11.272H41.48C41.5333 11.976 41.7947 12.5413 42.264 12.968C42.7333 13.3947 43.3093 13.608 43.992 13.608C44.9733 13.608 45.6667 13.1973 46.072 12.376H48.04C47.7733 13.1867 47.288 13.8533 46.584 14.376C45.8907 14.888 45.0267 15.144 43.992 15.144C43.1493 15.144 42.392 14.9573 41.72 14.584C41.0587 14.2 40.536 13.6667 40.152 12.984C39.7787 12.2907 39.592 11.4907 39.592 10.584C39.592 9.67733 39.7733 8.88267 40.136 8.2C40.5093 7.50667 41.0267 6.97333 41.688 6.6C42.36 6.22667 43.128 6.04 43.992 6.04C44.824 6.04 45.5653 6.22133 46.216 6.584C46.8667 6.94667 47.3733 7.45867 47.736 8.12C48.0987 8.77067 48.28 9.52267 48.28 10.376ZM46.376 9.8C46.3653 9.128 46.1253 8.58933 45.656 8.184C45.1867 7.77867 44.6053 7.576 43.912 7.576C43.2827 7.576 42.744 7.77867 42.296 8.184C41.848 8.57867 41.5813 9.11733 41.496 9.8H46.376Z" fill="#212121" fill-opacity="0.7"/>
<rect x="0.5" y="26.5" width="629" height="51" rx="7.5" stroke="#212121"/>
<path d="M22.48 45.1V46.96H18.78V59H16.5V46.96H12.78V45.1H22.48ZM34.7091 47.98L27.9491 64.18H25.5891L27.8291 58.82L23.4891 47.98H26.0291L29.1291 56.38L32.3491 47.98H34.7091ZM38.7097 49.6C39.0964 49.0933 39.623 48.6667 40.2897 48.32C40.9564 47.9733 41.7097 47.8 42.5497 47.8C43.5097 47.8 44.383 48.04 45.1697 48.52C45.9697 48.9867 46.5964 49.6467 47.0497 50.5C47.503 51.3533 47.7297 52.3333 47.7297 53.44C47.7297 54.5467 47.503 55.54 47.0497 56.42C46.5964 57.2867 45.9697 57.9667 45.1697 58.46C44.383 58.94 43.5097 59.18 42.5497 59.18C41.7097 59.18 40.963 59.0133 40.3097 58.68C39.6564 58.3333 39.123 57.9067 38.7097 57.4V64.24H36.4297V47.98H38.7097V49.6ZM45.4097 53.44C45.4097 52.68 45.2497 52.0267 44.9297 51.48C44.623 50.92 44.2097 50.5 43.6897 50.22C43.183 49.9267 42.6364 49.78 42.0497 49.78C41.4764 49.78 40.9297 49.9267 40.4097 50.22C39.903 50.5133 39.4897 50.94 39.1697 51.5C38.863 52.06 38.7097 52.72 38.7097 53.48C38.7097 54.24 38.863 54.9067 39.1697 55.48C39.4897 56.04 39.903 56.4667 40.4097 56.76C40.9297 57.0533 41.4764 57.2 42.0497 57.2C42.6364 57.2 43.183 57.0533 43.6897 56.76C44.2097 56.4533 44.623 56.0133 44.9297 55.44C45.2497 54.8667 45.4097 54.2 45.4097 53.44ZM60.0844 53.22C60.0844 53.6333 60.0577 54.0067 60.0044 54.34H51.5844C51.651 55.22 51.9777 55.9267 52.5644 56.46C53.151 56.9933 53.871 57.26 54.7244 57.26C55.951 57.26 56.8177 56.7467 57.3244 55.72H59.7844C59.451 56.7333 58.8444 57.5667 57.9644 58.22C57.0977 58.86 56.0177 59.18 54.7244 59.18C53.671 59.18 52.7244 58.9467 51.8844 58.48C51.0577 58 50.4044 57.3333 49.9244 56.48C49.4577 55.6133 49.2244 54.6133 49.2244 53.48C49.2244 52.3467 49.451 51.3533 49.9044 50.5C50.371 49.6333 51.0177 48.9667 51.8444 48.5C52.6844 48.0333 53.6444 47.8 54.7244 47.8C55.7644 47.8 56.691 48.0267 57.5044 48.48C58.3177 48.9333 58.951 49.5733 59.4044 50.4C59.8577 51.2133 60.0844 52.1533 60.0844 53.22ZM57.7044 52.5C57.691 51.66 57.391 50.9867 56.8044 50.48C56.2177 49.9733 55.491 49.72 54.6244 49.72C53.8377 49.72 53.1644 49.9733 52.6044 50.48C52.0444 50.9733 51.711 51.6467 51.6044 52.5H57.7044ZM77.4434 47.98L70.6834 64.18H68.3234L70.5634 58.82L66.2234 47.98H68.7634L71.8634 56.38L75.0834 47.98H77.4434ZM83.9441 59.18C82.9041 59.18 81.9641 58.9467 81.1241 58.48C80.2841 58 79.6241 57.3333 79.1441 56.48C78.6641 55.6133 78.4241 54.6133 78.4241 53.48C78.4241 52.36 78.6707 51.3667 79.1641 50.5C79.6574 49.6333 80.3307 48.9667 81.1841 48.5C82.0374 48.0333 82.9907 47.8 84.0441 47.8C85.0974 47.8 86.0507 48.0333 86.9041 48.5C87.7574 48.9667 88.4307 49.6333 88.9241 50.5C89.4174 51.3667 89.6641 52.36 89.6641 53.48C89.6641 54.6 89.4107 55.5933 88.9041 56.46C88.3974 57.3267 87.7041 58 86.8241 58.48C85.9574 58.9467 84.9974 59.18 83.9441 59.18ZM83.9441 57.2C84.5307 57.2 85.0774 57.06 85.5841 56.78C86.1041 56.5 86.5241 56.08 86.8441 55.52C87.1641 54.96 87.3241 54.28 87.3241 53.48C87.3241 52.68 87.1707 52.0067 86.8641 51.46C86.5574 50.9 86.1507 50.48 85.6441 50.2C85.1374 49.92 84.5907 49.78 84.0041 49.78C83.4174 49.78 82.8707 49.92 82.3641 50.2C81.8707 50.48 81.4774 50.9 81.1841 51.46C80.8907 52.0067 80.7441 52.68 80.7441 53.48C80.7441 54.6667 81.0441 55.5867 81.6441 56.24C82.2574 56.88 83.0241 57.2 83.9441 57.2ZM101.898 47.98V59H99.618V57.7C99.258 58.1533 98.7846 58.5133 98.198 58.78C97.6246 59.0333 97.0113 59.16 96.358 59.16C95.4913 59.16 94.7113 58.98 94.018 58.62C93.338 58.26 92.798 57.7267 92.398 57.02C92.0113 56.3133 91.818 55.46 91.818 54.46V47.98H94.078V54.12C94.078 55.1067 94.3246 55.8667 94.818 56.4C95.3113 56.92 95.9846 57.18 96.838 57.18C97.6913 57.18 98.3646 56.92 98.858 56.4C99.3646 55.8667 99.618 55.1067 99.618 54.12V47.98H101.898ZM107.186 49.58C107.52 49.02 107.96 48.5867 108.506 48.28C109.066 47.96 109.726 47.8 110.486 47.8V50.16H109.906C109.013 50.16 108.333 50.3867 107.866 50.84C107.413 51.2933 107.186 52.08 107.186 53.2V59H104.906V47.98H107.186V49.58ZM123.337 47.8C124.204 47.8 124.977 47.98 125.657 48.34C126.351 48.7 126.891 49.2333 127.277 49.94C127.664 50.6467 127.857 51.5 127.857 52.5V59H125.597V52.84C125.597 51.8533 125.351 51.1 124.857 50.58C124.364 50.0467 123.691 49.78 122.837 49.78C121.984 49.78 121.304 50.0467 120.797 50.58C120.304 51.1 120.057 51.8533 120.057 52.84V59H117.777V47.98H120.057V49.24C120.431 48.7867 120.904 48.4333 121.477 48.18C122.064 47.9267 122.684 47.8 123.337 47.8ZM130.006 53.44C130.006 52.3333 130.232 51.3533 130.686 50.5C131.152 49.6467 131.779 48.9867 132.566 48.52C133.366 48.04 134.246 47.8 135.206 47.8C136.072 47.8 136.826 47.9733 137.466 48.32C138.119 48.6533 138.639 49.0733 139.026 49.58V47.98H141.326V59H139.026V57.36C138.639 57.88 138.112 58.3133 137.446 58.66C136.779 59.0067 136.019 59.18 135.166 59.18C134.219 59.18 133.352 58.94 132.566 58.46C131.779 57.9667 131.152 57.2867 130.686 56.42C130.232 55.54 130.006 54.5467 130.006 53.44ZM139.026 53.48C139.026 52.72 138.866 52.06 138.546 51.5C138.239 50.94 137.832 50.5133 137.326 50.22C136.819 49.9267 136.272 49.78 135.686 49.78C135.099 49.78 134.552 49.9267 134.046 50.22C133.539 50.5 133.126 50.92 132.806 51.48C132.499 52.0267 132.346 52.68 132.346 53.44C132.346 54.2 132.499 54.8667 132.806 55.44C133.126 56.0133 133.539 56.4533 134.046 56.76C134.566 57.0533 135.112 57.2 135.686 57.2C136.272 57.2 136.819 57.0533 137.326 56.76C137.832 56.4667 138.239 56.04 138.546 55.48C138.866 54.9067 139.026 54.24 139.026 53.48ZM157.66 47.8C158.527 47.8 159.3 47.98 159.98 48.34C160.674 48.7 161.214 49.2333 161.6 49.94C162 50.6467 162.2 51.5 162.2 52.5V59H159.94V52.84C159.94 51.8533 159.694 51.1 159.2 50.58C158.707 50.0467 158.034 49.78 157.18 49.78C156.327 49.78 155.647 50.0467 155.14 50.58C154.647 51.1 154.4 51.8533 154.4 52.84V59H152.14V52.84C152.14 51.8533 151.894 51.1 151.4 50.58C150.907 50.0467 150.234 49.78 149.38 49.78C148.527 49.78 147.847 50.0467 147.34 50.58C146.847 51.1 146.6 51.8533 146.6 52.84V59H144.32V47.98H146.6V49.24C146.974 48.7867 147.447 48.4333 148.02 48.18C148.594 47.9267 149.207 47.8 149.86 47.8C150.74 47.8 151.527 47.9867 152.22 48.36C152.914 48.7333 153.447 49.2733 153.82 49.98C154.154 49.3133 154.674 48.7867 155.38 48.4C156.087 48 156.847 47.8 157.66 47.8ZM175.202 53.22C175.202 53.6333 175.175 54.0067 175.122 54.34H166.702C166.768 55.22 167.095 55.9267 167.682 56.46C168.268 56.9933 168.988 57.26 169.842 57.26C171.068 57.26 171.935 56.7467 172.442 55.72H174.902C174.568 56.7333 173.962 57.5667 173.082 58.22C172.215 58.86 171.135 59.18 169.842 59.18C168.788 59.18 167.842 58.9467 167.002 58.48C166.175 58 165.522 57.3333 165.042 56.48C164.575 55.6133 164.342 54.6133 164.342 53.48C164.342 52.3467 164.568 51.3533 165.022 50.5C165.488 49.6333 166.135 48.9667 166.962 48.5C167.802 48.0333 168.762 47.8 169.842 47.8C170.882 47.8 171.808 48.0267 172.622 48.48C173.435 48.9333 174.068 49.5733 174.522 50.4C174.975 51.2133 175.202 52.1533 175.202 53.22ZM172.822 52.5C172.808 51.66 172.508 50.9867 171.922 50.48C171.335 49.9733 170.608 49.72 169.742 49.72C168.955 49.72 168.282 49.9733 167.722 50.48C167.162 50.9733 166.828 51.6467 166.722 52.5H172.822Z" fill="#212121" fill-opacity="0.3"/>
</svg>
