<svg width="630" height="78" viewBox="0 0 630 78" fill="none" xmlns="http://www.w3.org/2000/svg">
<path d="M10.336 15H8.512L3.024 6.696V15H1.2V3.864H3.024L8.512 12.152V3.864H10.336V15ZM12.1233 10.552C12.1233 9.66667 12.3046 8.88267 12.6673 8.2C13.0406 7.51733 13.5419 6.98933 14.1713 6.616C14.8113 6.232 15.5153 6.04 16.2833 6.04C16.9766 6.04 17.5793 6.17867 18.0913 6.456C18.6139 6.72267 19.0299 7.05867 19.3393 7.464V6.184H21.1793V15H19.3393V13.688C19.0299 14.104 18.6086 14.4507 18.0753 14.728C17.5419 15.0053 16.9339 15.144 16.2513 15.144C15.4939 15.144 14.8006 14.952 14.1713 14.568C13.5419 14.1733 13.0406 13.6293 12.6673 12.936C12.3046 12.232 12.1233 11.4373 12.1233 10.552ZM19.3393 10.584C19.3393 9.976 19.2113 9.448 18.9553 9C18.7099 8.552 18.3846 8.21067 17.9793 7.976C17.5739 7.74133 17.1366 7.624 16.6673 7.624C16.1979 7.624 15.7606 7.74133 15.3553 7.976C14.9499 8.2 14.6193 8.536 14.3633 8.984C14.1179 9.42133 13.9953 9.944 13.9953 10.552C13.9953 11.16 14.1179 11.6933 14.3633 12.152C14.6193 12.6107 14.9499 12.9627 15.3553 13.208C15.7713 13.4427 16.2086 13.56 16.6673 13.56C17.1366 13.56 17.5739 13.4427 17.9793 13.208C18.3846 12.9733 18.7099 12.632 18.9553 12.184C19.2113 11.7253 19.3393 11.192 19.3393 10.584ZM34.247 6.04C34.9403 6.04 35.559 6.184 36.103 6.472C36.6577 6.76 37.0897 7.18667 37.399 7.752C37.719 8.31733 37.879 9 37.879 9.8V15H36.071V10.072C36.071 9.28267 35.8737 8.68 35.479 8.264C35.0843 7.83733 34.5457 7.624 33.863 7.624C33.1803 7.624 32.6363 7.83733 32.231 8.264C31.8363 8.68 31.639 9.28267 31.639 10.072V15H29.831V10.072C29.831 9.28267 29.6337 8.68 29.239 8.264C28.8443 7.83733 28.3057 7.624 27.623 7.624C26.9403 7.624 26.3963 7.83733 25.991 8.264C25.5963 8.68 25.399 9.28267 25.399 10.072V15H23.575V6.184H25.399V7.192C25.6977 6.82933 26.0763 6.54667 26.535 6.344C26.9937 6.14133 27.4843 6.04 28.007 6.04C28.711 6.04 29.3403 6.18933 29.895 6.488C30.4497 6.78667 30.8763 7.21867 31.175 7.784C31.4417 7.25067 31.8577 6.82933 32.423 6.52C32.9883 6.2 33.5963 6.04 34.247 6.04ZM48.28 10.376C48.28 10.7067 48.2587 11.0053 48.216 11.272H41.48C41.5333 11.976 41.7947 12.5413 42.264 12.968C42.7333 13.3947 43.3093 13.608 43.992 13.608C44.9733 13.608 45.6667 13.1973 46.072 12.376H48.04C47.7733 13.1867 47.288 13.8533 46.584 14.376C45.8907 14.888 45.0267 15.144 43.992 15.144C43.1493 15.144 42.392 14.9573 41.72 14.584C41.0587 14.2 40.536 13.6667 40.152 12.984C39.7787 12.2907 39.592 11.4907 39.592 10.584C39.592 9.67733 39.7733 8.88267 40.136 8.2C40.5093 7.50667 41.0267 6.97333 41.688 6.6C42.36 6.22667 43.128 6.04 43.992 6.04C44.824 6.04 45.5653 6.22133 46.216 6.584C46.8667 6.94667 47.3733 7.45867 47.736 8.12C48.0987 8.77067 48.28 9.52267 48.28 10.376ZM46.376 9.8C46.3653 9.128 46.1253 8.58933 45.656 8.184C45.1867 7.77867 44.6053 7.576 43.912 7.576C43.2827 7.576 42.744 7.77867 42.296 8.184C41.848 8.57867 41.5813 9.11733 41.496 9.8H46.376Z" fill="#212121" fill-opacity="0.7"/>
<rect x="0.5" y="26.5" width="629" height="51" rx="7.5" stroke="#212121" stroke-opacity="0.4"/>
<path d="M20.94 51.86C21.6867 51.9933 22.32 52.3867 22.84 53.04C23.36 53.6933 23.62 54.4333 23.62 55.26C23.62 55.9667 23.4333 56.6067 23.06 57.18C22.7 57.74 22.1733 58.1867 21.48 58.52C20.7867 58.84 19.98 59 19.06 59H13.5V45.1H18.8C19.7467 45.1 20.56 45.26 21.24 45.58C21.92 45.9 22.4333 46.3333 22.78 46.88C23.1267 47.4133 23.3 48.0133 23.3 48.68C23.3 49.48 23.0867 50.1467 22.66 50.68C22.2333 51.2133 21.66 51.6067 20.94 51.86ZM15.78 50.94H18.6C19.3467 50.94 19.9267 50.7733 20.34 50.44C20.7667 50.0933 20.98 49.6 20.98 48.96C20.98 48.3333 20.7667 47.8467 20.34 47.5C19.9267 47.14 19.3467 46.96 18.6 46.96H15.78V50.94ZM18.86 57.14C19.6333 57.14 20.24 56.9533 20.68 56.58C21.12 56.2067 21.34 55.6867 21.34 55.02C21.34 54.34 21.1067 53.8 20.64 53.4C20.1733 53 19.5533 52.8 18.78 52.8H15.78V57.14H18.86ZM36.1977 53.22C36.1977 53.6333 36.171 54.0067 36.1177 54.34H27.6977C27.7643 55.22 28.091 55.9267 28.6777 56.46C29.2643 56.9933 29.9843 57.26 30.8377 57.26C32.0643 57.26 32.931 56.7467 33.4377 55.72H35.8977C35.5643 56.7333 34.9577 57.5667 34.0777 58.22C33.211 58.86 32.131 59.18 30.8377 59.18C29.7843 59.18 28.8377 58.9467 27.9977 58.48C27.171 58 26.5177 57.3333 26.0377 56.48C25.571 55.6133 25.3377 54.6133 25.3377 53.48C25.3377 52.3467 25.5643 51.3533 26.0177 50.5C26.4843 49.6333 27.131 48.9667 27.9577 48.5C28.7977 48.0333 29.7577 47.8 30.8377 47.8C31.8777 47.8 32.8043 48.0267 33.6177 48.48C34.431 48.9333 35.0643 49.5733 35.5177 50.4C35.971 51.2133 36.1977 52.1533 36.1977 53.22ZM33.8177 52.5C33.8043 51.66 33.5043 50.9867 32.9177 50.48C32.331 49.9733 31.6043 49.72 30.7377 49.72C29.951 49.72 29.2777 49.9733 28.7177 50.48C28.1577 50.9733 27.8243 51.6467 27.7177 52.5H33.8177ZM42.4414 59.18C41.5747 59.18 40.7947 59.0267 40.1014 58.72C39.4214 58.4 38.8814 57.9733 38.4814 57.44C38.0814 56.8933 37.8681 56.2867 37.8414 55.62H40.2014C40.2414 56.0867 40.4614 56.48 40.8614 56.8C41.2747 57.1067 41.7881 57.26 42.4014 57.26C43.0414 57.26 43.5347 57.14 43.8814 56.9C44.2414 56.6467 44.4214 56.3267 44.4214 55.94C44.4214 55.5267 44.2214 55.22 43.8214 55.02C43.4347 54.82 42.8147 54.6 41.9614 54.36C41.1347 54.1333 40.4614 53.9133 39.9414 53.7C39.4214 53.4867 38.9681 53.16 38.5814 52.72C38.2081 52.28 38.0214 51.7 38.0214 50.98C38.0214 50.3933 38.1947 49.86 38.5414 49.38C38.8881 48.8867 39.3814 48.5 40.0214 48.22C40.6747 47.94 41.4214 47.8 42.2614 47.8C43.5147 47.8 44.5214 48.12 45.2814 48.76C46.0547 49.3867 46.4681 50.2467 46.5214 51.34H44.2414C44.2014 50.8467 44.0014 50.4533 43.6414 50.16C43.2814 49.8667 42.7947 49.72 42.1814 49.72C41.5814 49.72 41.1214 49.8333 40.8014 50.06C40.4814 50.2867 40.3214 50.5867 40.3214 50.96C40.3214 51.2533 40.4281 51.5 40.6414 51.7C40.8547 51.9 41.1147 52.06 41.4214 52.18C41.7281 52.2867 42.1814 52.4267 42.7814 52.6C43.5814 52.8133 44.2347 53.0333 44.7414 53.26C45.2614 53.4733 45.7081 53.7933 46.0814 54.22C46.4547 54.6467 46.6481 55.2133 46.6614 55.92C46.6614 56.5467 46.4881 57.1067 46.1414 57.6C45.7947 58.0933 45.3014 58.48 44.6614 58.76C44.0347 59.04 43.2947 59.18 42.4414 59.18ZM53.125 59.18C52.2583 59.18 51.4783 59.0267 50.785 58.72C50.105 58.4 49.565 57.9733 49.165 57.44C48.765 56.8933 48.5517 56.2867 48.525 55.62H50.885C50.925 56.0867 51.145 56.48 51.545 56.8C51.9583 57.1067 52.4717 57.26 53.085 57.26C53.725 57.26 54.2183 57.14 54.565 56.9C54.925 56.6467 55.105 56.3267 55.105 55.94C55.105 55.5267 54.905 55.22 54.505 55.02C54.1183 54.82 53.4983 54.6 52.645 54.36C51.8183 54.1333 51.145 53.9133 50.625 53.7C50.105 53.4867 49.6517 53.16 49.265 52.72C48.8917 52.28 48.705 51.7 48.705 50.98C48.705 50.3933 48.8783 49.86 49.225 49.38C49.5717 48.8867 50.065 48.5 50.705 48.22C51.3583 47.94 52.105 47.8 52.945 47.8C54.1983 47.8 55.205 48.12 55.965 48.76C56.7383 49.3867 57.1517 50.2467 57.205 51.34H54.925C54.885 50.8467 54.685 50.4533 54.325 50.16C53.965 49.8667 53.4783 49.72 52.865 49.72C52.265 49.72 51.805 49.8333 51.485 50.06C51.165 50.2867 51.005 50.5867 51.005 50.96C51.005 51.2533 51.1117 51.5 51.325 51.7C51.5383 51.9 51.7983 52.06 52.105 52.18C52.4117 52.2867 52.865 52.4267 53.465 52.6C54.265 52.8133 54.9183 53.0333 55.425 53.26C55.945 53.4733 56.3917 53.7933 56.765 54.22C57.1383 54.6467 57.3317 55.2133 57.345 55.92C57.345 56.5467 57.1717 57.1067 56.825 57.6C56.4783 58.0933 55.985 58.48 55.345 58.76C54.7183 59.04 53.9783 59.18 53.125 59.18ZM60.9686 46.52C60.5553 46.52 60.2086 46.38 59.9286 46.1C59.6486 45.82 59.5086 45.4733 59.5086 45.06C59.5086 44.6467 59.6486 44.3 59.9286 44.02C60.2086 43.74 60.5553 43.6 60.9686 43.6C61.3686 43.6 61.7086 43.74 61.9886 44.02C62.2686 44.3 62.4086 44.6467 62.4086 45.06C62.4086 45.4733 62.2686 45.82 61.9886 46.1C61.7086 46.38 61.3686 46.52 60.9686 46.52ZM62.0886 47.98V59H59.8086V47.98H62.0886ZM75.182 53.22C75.182 53.6333 75.1554 54.0067 75.102 54.34H66.682C66.7487 55.22 67.0754 55.9267 67.662 56.46C68.2487 56.9933 68.9687 57.26 69.822 57.26C71.0487 57.26 71.9154 56.7467 72.422 55.72H74.882C74.5487 56.7333 73.942 57.5667 73.062 58.22C72.1954 58.86 71.1154 59.18 69.822 59.18C68.7687 59.18 67.822 58.9467 66.982 58.48C66.1554 58 65.502 57.3333 65.022 56.48C64.5554 55.6133 64.322 54.6133 64.322 53.48C64.322 52.3467 64.5487 51.3533 65.002 50.5C65.4687 49.6333 66.1154 48.9667 66.942 48.5C67.782 48.0333 68.742 47.8 69.822 47.8C70.862 47.8 71.7887 48.0267 72.602 48.48C73.4154 48.9333 74.0487 49.5733 74.502 50.4C74.9554 51.2133 75.182 52.1533 75.182 53.22ZM72.802 52.5C72.7887 51.66 72.4887 50.9867 71.902 50.48C71.3154 49.9733 70.5887 49.72 69.722 49.72C68.9354 49.72 68.262 49.9733 67.702 50.48C67.142 50.9733 66.8087 51.6467 66.702 52.5H72.802ZM81.8611 52.02C81.8611 50.66 82.1744 49.44 82.8011 48.36C83.4411 47.28 84.3011 46.44 85.3811 45.84C86.4744 45.2267 87.6678 44.92 88.9611 44.92C90.4411 44.92 91.7544 45.2867 92.9011 46.02C94.0611 46.74 94.9011 47.7667 95.4211 49.1H92.6811C92.3211 48.3667 91.8211 47.82 91.1811 47.46C90.5411 47.1 89.8011 46.92 88.9611 46.92C88.0411 46.92 87.2211 47.1267 86.5011 47.54C85.7811 47.9533 85.2144 48.5467 84.8011 49.32C84.4011 50.0933 84.2011 50.9933 84.2011 52.02C84.2011 53.0467 84.4011 53.9467 84.8011 54.72C85.2144 55.4933 85.7811 56.0933 86.5011 56.52C87.2211 56.9333 88.0411 57.14 88.9611 57.14C89.8011 57.14 90.5411 56.96 91.1811 56.6C91.8211 56.24 92.3211 55.6933 92.6811 54.96H95.4211C94.9011 56.2933 94.0611 57.32 92.9011 58.04C91.7544 58.76 90.4411 59.12 88.9611 59.12C87.6544 59.12 86.4611 58.82 85.3811 58.22C84.3011 57.6067 83.4411 56.76 82.8011 55.68C82.1744 54.6 81.8611 53.38 81.8611 52.02ZM102.87 59.18C101.83 59.18 100.89 58.9467 100.05 58.48C99.2098 58 98.5498 57.3333 98.0698 56.48C97.5898 55.6133 97.3498 54.6133 97.3498 53.48C97.3498 52.36 97.5965 51.3667 98.0898 50.5C98.5832 49.6333 99.2565 48.9667 100.11 48.5C100.963 48.0333 101.917 47.8 102.97 47.8C104.023 47.8 104.977 48.0333 105.83 48.5C106.683 48.9667 107.357 49.6333 107.85 50.5C108.343 51.3667 108.59 52.36 108.59 53.48C108.59 54.6 108.337 55.5933 107.83 56.46C107.323 57.3267 106.63 58 105.75 58.48C104.883 58.9467 103.923 59.18 102.87 59.18ZM102.87 57.2C103.457 57.2 104.003 57.06 104.51 56.78C105.03 56.5 105.45 56.08 105.77 55.52C106.09 54.96 106.25 54.28 106.25 53.48C106.25 52.68 106.097 52.0067 105.79 51.46C105.483 50.9 105.077 50.48 104.57 50.2C104.063 49.92 103.517 49.78 102.93 49.78C102.343 49.78 101.797 49.92 101.29 50.2C100.797 50.48 100.403 50.9 100.11 51.46C99.8165 52.0067 99.6698 52.68 99.6698 53.48C99.6698 54.6667 99.9698 55.5867 100.57 56.24C101.183 56.88 101.95 57.2 102.87 57.2ZM113.124 44.2V59H110.844V44.2H113.124ZM126.217 53.22C126.217 53.6333 126.191 54.0067 126.137 54.34H117.717C117.784 55.22 118.111 55.9267 118.697 56.46C119.284 56.9933 120.004 57.26 120.857 57.26C122.084 57.26 122.951 56.7467 123.457 55.72H125.917C125.584 56.7333 124.977 57.5667 124.097 58.22C123.231 58.86 122.151 59.18 120.857 59.18C119.804 59.18 118.857 58.9467 118.017 58.48C117.191 58 116.537 57.3333 116.057 56.48C115.591 55.6133 115.357 54.6133 115.357 53.48C115.357 52.3467 115.584 51.3533 116.037 50.5C116.504 49.6333 117.151 48.9667 117.977 48.5C118.817 48.0333 119.777 47.8 120.857 47.8C121.897 47.8 122.824 48.0267 123.637 48.48C124.451 48.9333 125.084 49.5733 125.537 50.4C125.991 51.2133 126.217 52.1533 126.217 53.22ZM123.837 52.5C123.824 51.66 123.524 50.9867 122.937 50.48C122.351 49.9733 121.624 49.72 120.757 49.72C119.971 49.72 119.297 49.9733 118.737 50.48C118.177 50.9733 117.844 51.6467 117.737 52.5H123.837ZM141.801 47.8C142.668 47.8 143.441 47.98 144.121 48.34C144.814 48.7 145.354 49.2333 145.741 49.94C146.141 50.6467 146.341 51.5 146.341 52.5V59H144.081V52.84C144.081 51.8533 143.834 51.1 143.341 50.58C142.848 50.0467 142.174 49.78 141.321 49.78C140.468 49.78 139.788 50.0467 139.281 50.58C138.788 51.1 138.541 51.8533 138.541 52.84V59H136.281V52.84C136.281 51.8533 136.034 51.1 135.541 50.58C135.048 50.0467 134.374 49.78 133.521 49.78C132.668 49.78 131.988 50.0467 131.481 50.58C130.988 51.1 130.741 51.8533 130.741 52.84V59H128.461V47.98H130.741V49.24C131.114 48.7867 131.588 48.4333 132.161 48.18C132.734 47.9267 133.348 47.8 134.001 47.8C134.881 47.8 135.668 47.9867 136.361 48.36C137.054 48.7333 137.588 49.2733 137.961 49.98C138.294 49.3133 138.814 48.7867 139.521 48.4C140.228 48 140.988 47.8 141.801 47.8ZM148.482 53.44C148.482 52.3333 148.709 51.3533 149.162 50.5C149.629 49.6467 150.256 48.9867 151.042 48.52C151.842 48.04 152.722 47.8 153.682 47.8C154.549 47.8 155.302 47.9733 155.942 48.32C156.596 48.6533 157.116 49.0733 157.502 49.58V47.98H159.802V59H157.502V57.36C157.116 57.88 156.589 58.3133 155.922 58.66C155.256 59.0067 154.496 59.18 153.642 59.18C152.696 59.18 151.829 58.94 151.042 58.46C150.256 57.9667 149.629 57.2867 149.162 56.42C148.709 55.54 148.482 54.5467 148.482 53.44ZM157.502 53.48C157.502 52.72 157.342 52.06 157.022 51.5C156.716 50.94 156.309 50.5133 155.802 50.22C155.296 49.9267 154.749 49.78 154.162 49.78C153.576 49.78 153.029 49.9267 152.522 50.22C152.016 50.5 151.602 50.92 151.282 51.48C150.976 52.0267 150.822 52.68 150.822 53.44C150.822 54.2 150.976 54.8667 151.282 55.44C151.602 56.0133 152.016 56.4533 152.522 56.76C153.042 57.0533 153.589 57.2 154.162 57.2C154.749 57.2 155.296 57.0533 155.802 56.76C156.309 56.4667 156.716 56.04 157.022 55.48C157.342 54.9067 157.502 54.24 157.502 53.48ZM168.357 47.8C169.224 47.8 169.997 47.98 170.677 48.34C171.37 48.7 171.91 49.2333 172.297 49.94C172.684 50.6467 172.877 51.5 172.877 52.5V59H170.617V52.84C170.617 51.8533 170.37 51.1 169.877 50.58C169.384 50.0467 168.71 49.78 167.857 49.78C167.004 49.78 166.324 50.0467 165.817 50.58C165.324 51.1 165.077 51.8533 165.077 52.84V59H162.797V47.98H165.077V49.24C165.45 48.7867 165.924 48.4333 166.497 48.18C167.084 47.9267 167.704 47.8 168.357 47.8Z" fill="#212121"/>
</svg>
